<svg xmlns="http://www.w3.org/2000/svg" width="1209" height="1209" viewBox="0 0 39 39"><path d="M1 1h7v7h-7zM9 1h2v1h-1v2h-1zM14 1h2v2h1v-1h1v2h-3v-2h-1zM21 1h1v1h1v-1h1v2h-1v2h-2v-1h1v-1h-1v1h-2v-1h1v-1h1zM26 1h2v1h-1v1h2v1h-2v1h-1v1h-1v-1h-1v-2h1v1h1zM31 1h7v7h-7zM2 2v5h5v-5zM12 2h2v2h1v1h-1v1h-2v-1h1v-1h-2v-1h1zM29 2h1v1h-1zM32 2v5h5v-5zM3 3h3v3h-3zM33 3h3v3h-3zM18 4h1v2h1v3h2v2h-3v-4h-1v3h-2v-2h1v-1h-1v-1h-1v-1h2v1h1zM29 4h1v2h-1zM9 5h1v1h-1zM20 5h1v1h-1zM23 5h1v1h-1zM27 5h1v1h-1zM10 6h1v1h-1zM22 6h1v1h-1zM24 6h1v1h-1zM26 6h1v1h-1zM9 7h1v1h-1zM11 7h1v3h2v1h-3v-1h-5v1h-1v1h-1v1h-1v1h2v1h-1v1h-3v-1h1v-1h-1v-1h1v-3h2v-1h6v-1h1zM13 7h1v1h1v1h-2zM15 7h1v1h-1zM21 7h1v1h-1zM23 7h1v1h-1zM25 7h1v1h-1zM27 7h1v1h1v1h2v2h-1v-1h-1v1h1v3h1v1h1v1h-1v1h-2v-1h1v-1h-1v1h-2v-2h1v-2h-2v-1h1v-2h-1v-1h1zM29 7h1v1h-1zM1 9h1v1h-1zM24 9h2v2h-1v2h-2v-1h-1v-1h2zM33 9h1v1h1v-1h3v1h-1v1h-2v1h2v-1h1v3h-1v-1h-3v-2h-1v2h-1v-1h-1v-1h1v-1h1zM15 10h1v1h-1zM6 11h4v1h-1v1h1v2h1v1h-1v1h-1v1h-2v-1h1v-1h-1v-1h1v-1h-1v-1h1v-1h-1v1h-1v1h-1v-2h1zM18 11h1v2h-1zM10 12h1v1h-1zM16 12h1v1h-1zM12 13h1v2h-2v-1h1zM17 13h1v1h-1zM20 13h2v1h-2zM25 13h1v1h-1zM31 13h1v1h-1zM6 14h1v1h-1zM18 14h1v2h1v-1h1v5h-1v-1h-1v1h-1v-1h-1v-2h1zM23 14h2v1h-2zM33 14h2v1h1v-1h1v1h1v3h-1v-2h-1v4h-1v1h-1v-2h1v-2h-1v-1h-1zM5 15h1v1h-1zM13 15h1v1h1v-1h2v2h-3v1h2v1h-2v1h2v1h-1v1h1v-1h3v1h-1v1h-1v1h-2v-1h-1v-2h-1v3h-1v-2h-1v-1h1v-1h-1v1h-1v-1h-1v-1h1v-1h1v1h1v-1h1v-1h-1v-1h1zM22 15h1v1h-1zM6 16h1v1h-1zM23 16h2v1h-1v1h-1zM32 16h1v3h-1v-1h-1v-1h1zM2 17h1v1h-1zM19 17v1h1v-1zM25 17h2v2h-1v-1h-1zM28 17h1v3h-1zM6 18h1v1h1v1h-2zM1 19h2v1h-1v1h-1zM16 19h1v1h-1zM23 19h2v2h1v1h-1v2h-1v1h-1v-1h-1v-1h2v-3h-1zM31 19h1v1h-1zM37 19h1v2h-1zM3 20h3v1h-3zM19 20h1v1h-1zM26 20h1v1h-1zM30 20h1v1h3v2h-1v-1h-2v1h-1v-1h-1v3h3v-1h-1v-1h2v1h1v-1h1v1h2v-1h1v2h-1v1h-1v-1h-3v1h1v2h-1v-1h-1v-1h-2v1h2v1h-1v1h1v-1h1v1h1v5h-2v1h-1v-1h-3v-2h1v-2h-1v-2h-1v-2h1v-1h-1v-1h1v-1h-1v1h-1v-2h1v-1h3zM2 21h1v1h-1zM7 21h1v1h-1zM9 21h1v2h-1v1h-6v1h-1v-2h1v-1h2v1h1v-1h1v1h1v-1h1zM20 21h1v1h1v1h-2v1h-1v1h1v-1h2v2h-4v2h-1v-2h-1v-1h2v-2h1v-1h1zM1 22h1v1h-1zM35 22h2v1h-2zM14 24h1v2h1v1h-1v2h1v1h1v2h-1v-1h-1v2h-1v2h1v2h-1v1h-2v-1h1v-1h-1v-1h1v-1h-1v-1h-1v-1h-1v1h1v1h-1v1h-1v-5h2v1h1v-2h2v-2h-3v-1h-1v-1h2v1h1v-1h1zM25 24h1v2h-1v1h-2v-1h1v-1h1zM1 25h1v2h1v-1h1v-1h1v1h2v1h1v1h-1v1h1v-1h1v2h-6v-2h-1v2h-1zM7 25h2v2h-1v-1h-1zM4 27v2h1v-1h1v-1zM10 27h1v1h1v1h-2zM20 27h1v2h1v3h-2v-1h-1v-2h1zM22 27h1v1h-1zM36 27h2v2h-2v1h1v1h-2v-3h1zM16 28h1v1h-1zM24 28h2v1h1v2h-1v-1h-2v1h2v1h-1v1h1v1h-1v1h1v-1h2v4h-1v-2h-4v-1h1v-3h-1v-3h1zM29 28v1h1v-1zM17 29h1v1h-1zM30 30v3h3v-3zM1 31h7v7h-7zM13 31v1h1v-1zM27 31h1v1h-1zM31 31h1v1h-1zM37 31h1v1h-1zM2 32v5h5v-5zM18 32h2v1h-2zM26 32h1v1h-1zM3 33h3v3h-3zM15 33h1v2h-1zM17 34h4v1h-3v1h2v1h-2v1h-2v-1h1v-1h-1v-1h1zM22 34h1v1h-1zM37 34h1v4h-1v-1h-2v-1h-1v1h-1v-2h3v1h1zM29 35h2v1h-2zM10 36h2v1h-1v1h-2v-1h1zM21 36h1v2h-2v-1h1zM25 37h1v1h-1zM29 37h2v1h-2zM32 37h1v1h-1zM34 37h1v1h-1z"/></svg>